# xmcd
#
# Track frame offsets: 
#        150
#        23120
#        37905
#        64347
#        80565
#        94025
#        108522
#        126722
#        145985
#        159652
#        176962
#        197130
#        212977
#        228065
#
# Disc length: 3341 seconds
#
# Revision: 1
# Processed by: cddbd v1.5.2PL0 Copyright (c) Steve Scherf et al.
# Submitted via: ExactAudioCopy v1.0b3
#
DISCID=cc0d0b0e
DTITLE=Magic Slim and the Teardrops - Grand Slam
DYEAR=1982
DGENRE=Blues
TTITLE0=Early Every Morning
TTITLE1=She Belongs to Me
TTITLE2=Just to Be With You
TTITLE3=Walking the Dog
TTITLE4=Slammin'
TTITLE5=Rough Dried Woman
TTITLE6=Fannie Mae
TTITLE7=Give Me Back My Wig
TTITLE8=Scuffling
TTITLE9=Make My Dreams Come True
TTITLE10=1823 South Michigan Avenue
TTITLE11=Wonder Why
TTITLE12=If You Need Me
TTITLE13=Teardrop
EXTD=YEAR: 2000
EXTT0=
EXTT1=
EXTT2=
EXTT3=
EXTT4=
EXTT5=
EXTT6=
EXTT7=
EXTT8=
EXTT9=
EXTT10=
EXTT11=
EXTT12=
EXTT13=
PLAYORDER=
